<?xml version="1.0" standalone="no"?>
<!DOCTYPE svg PUBLIC "-//W3C//DTD SVG 20010904//EN"
 "http://www.w3.org/TR/2001/REC-SVG-20010904/DTD/svg10.dtd">
<svg version="1.0" xmlns="http://www.w3.org/2000/svg"
 width="421.000000pt" height="421.000000pt" viewBox="0 0 421.000000 421.000000"
 preserveAspectRatio="xMidYMid meet">
<metadata>
Created by potrace 1.11, written by Peter Selinger 2001-2013
</metadata>
<g transform="translate(0.000000,421.000000) scale(0.100000,-0.100000)"
fill="#000000" stroke="none">
<path d="M379 4195 c-132 -36 -268 -144 -321 -255 -61 -126 -58 -18 -57 -1839
0 -1814 -3 -1710 57 -1831 52 -107 198 -225 318 -257 49 -13 3348 -16 3424 -3
190 33 331 165 398 375 4 11 7 785 7 1720 0 1636 -1 1702 -19 1755 -59 174
-210 309 -381 339 -92 17 -3365 13 -3426 -4z m1326 -1068 c-2 -73 -6 -249 -10
-392 -14 -455 -11 -673 11 -785 36 -190 139 -292 310 -303 169 -11 308 81 402
268 65 128 61 91 61 620 l1 485 -35 1 c-19 1 -38 2 -42 4 -5 1 -41 5 -80 10
l-73 8 0 48 0 48 108 35 c93 30 179 53 263 70 88 18 118 21 144 16 l30 -5 0
-792 -1 -792 36 -5 c19 -3 58 -8 85 -11 28 -3 59 -8 70 -10 11 -2 25 -4 32 -4
10 -1 12 -66 2 -75 -10 -8 -191 -76 -244 -91 -106 -31 -250 -51 -259 -36 -2 3
-7 69 -11 146 -4 77 -9 156 -10 175 -2 19 -4 47 -4 63 -1 42 -14 32 -35 -25
-32 -90 -75 -155 -146 -220 -113 -105 -224 -148 -378 -148 -110 0 -224 24
-294 63 -31 17 -60 29 -62 26 -3 -3 1 -39 8 -80 8 -41 17 -87 20 -104 3 -16 8
-43 11 -60 3 -16 10 -55 15 -85 6 -30 12 -66 15 -80 27 -137 38 -206 42 -267
l5 -72 -43 -11 c-56 -16 -181 -16 -236 -1 l-43 12 0 1123 0 1124 -62 8 c-35 4
-66 9 -70 10 -5 1 -24 2 -43 3 l-35 1 0 49 0 49 113 36 c122 38 251 72 313 82
21 3 40 7 41 8 1 1 19 0 41 -2 l39 -4 -2 -131z"/>
</g>
</svg>
